<?xml version="1.0" standalone="no"?>
<!DOCTYPE svg PUBLIC "-//W3C//DTD SVG 20010904//EN"
 "http://www.w3.org/TR/2001/REC-SVG-20010904/DTD/svg10.dtd">
<svg version="1.0" xmlns="http://www.w3.org/2000/svg"
 width="480.000000pt" height="480.000000pt" viewBox="0 0 480.000000 480.000000"
 preserveAspectRatio="xMidYMid meet">

<g transform="translate(0.000000,480.000000) scale(0.100000,-0.100000)"
fill="#000000" stroke="none">
<path d="M2315 4531 c-11 -5 -133 -99 -270 -210 l-250 -201 -320 2 c-236 2
-331 0 -362 -10 -66 -20 -157 -87 -197 -145 -62 -91 -69 -123 -68 -297 1 -85
4 -185 8 -221 l6 -67 -229 -155 c-126 -86 -246 -174 -267 -198 -61 -66 -90
-140 -94 -236 -5 -94 -6 -88 111 -418 l85 -241 7 -334 c7 -353 11 -401 47
-476 28 -61 111 -144 171 -172 26 -12 154 -48 285 -80 l237 -58 145 -225 c218
-335 277 -384 465 -383 79 1 120 9 332 67 l242 65 243 -65 c282 -75 341 -83
434 -58 110 30 165 79 275 246 52 79 126 190 164 248 l70 106 245 60 c135 34
256 67 270 74 60 33 112 78 145 125 66 97 67 104 76 501 l7 360 98 270 98 270
0 100 c0 89 -3 106 -27 157 -43 88 -96 136 -307 278 -107 72 -206 139 -220
149 l-25 18 0 234 0 234 -33 67 c-40 82 -119 157 -200 190 -56 23 -62 23 -382
20 l-325 -3 -160 122 c-414 315 -380 293 -449 296 -33 2 -70 -1 -81 -6z m354
-389 c133 -100 252 -187 267 -192 14 -6 164 -10 355 -10 365 0 371 -1 426 -63
48 -55 53 -87 46 -316 -4 -146 -3 -217 6 -242 16 -50 63 -90 246 -214 259
-175 284 -194 305 -235 42 -82 40 -90 -73 -415 l-105 -300 -6 -352 c-4 -204
-11 -364 -17 -380 -14 -39 -64 -88 -107 -106 -21 -9 -141 -41 -268 -72 -126
-31 -245 -65 -263 -76 -22 -13 -80 -92 -188 -257 -161 -246 -191 -285 -233
-306 -66 -34 -61 -35 -509 83 l-154 41 -267 -70 c-146 -38 -286 -70 -310 -70
-50 0 -116 27 -141 56 -9 10 -82 121 -163 245 -80 124 -162 240 -181 259 -31
30 -53 37 -292 97 -258 64 -283 73 -324 115 -50 53 -52 70 -59 453 l-7 360
-93 260 c-118 332 -118 331 -96 399 21 68 35 80 260 231 339 228 318 193 314
519 -3 263 -5 255 76 320 l38 31 342 1 342 0 42 25 c23 13 146 108 273 211
230 185 233 187 255 170 13 -9 131 -99 263 -200z"/>
</g>
</svg>
